<svg width="179" height="101" viewBox="0 0 179 101" fill="none" xmlns="http://www.w3.org/2000/svg">
<path d="M6.30273 62.3945H2.18945V70H1.05859V61.4688H6.30273V62.3945ZM6.13281 66.7715C6.13281 66.1504 6.25391 65.5918 6.49609 65.0957C6.74219 64.5996 7.08203 64.2168 7.51562 63.9473C7.95312 63.6777 8.45117 63.543 9.00977 63.543C9.87305 63.543 10.5703 63.8418 11.1016 64.4395C11.6367 65.0371 11.9043 65.832 11.9043 66.8242V66.9004C11.9043 67.5176 11.7852 68.0723 11.5469 68.5645C11.3125 69.0527 10.9746 69.4336 10.5332 69.707C10.0957 69.9805 9.5918 70.1172 9.02148 70.1172C8.16211 70.1172 7.46484 69.8184 6.92969 69.2207C6.39844 68.623 6.13281 67.832 6.13281 66.8477V66.7715ZM7.22266 66.9004C7.22266 67.6035 7.38477 68.168 7.70898 68.5938C8.03711 69.0195 8.47461 69.2324 9.02148 69.2324C9.57227 69.2324 10.0098 69.0176 10.334 68.5879C10.6582 68.1543 10.8203 67.5488 10.8203 66.7715C10.8203 66.0762 10.6543 65.5137 10.3223 65.084C9.99414 64.6504 9.55664 64.4336 9.00977 64.4336C8.47461 64.4336 8.04297 64.6465 7.71484 65.0723C7.38672 65.498 7.22266 66.1074 7.22266 66.9004ZM15.8066 69.2324C16.1934 69.2324 16.5312 69.1152 16.8203 68.8809C17.1094 68.6465 17.2695 68.3535 17.3008 68.002H18.3262C18.3066 68.3652 18.1816 68.7109 17.9512 69.0391C17.7207 69.3672 17.4121 69.6289 17.0254 69.8242C16.6426 70.0195 16.2363 70.1172 15.8066 70.1172C14.9434 70.1172 14.2559 69.8301 13.7441 69.2559C13.2363 68.6777 12.9824 67.8887 12.9824 66.8887V66.707C12.9824 66.0898 13.0957 65.541 13.3223 65.0605C13.5488 64.5801 13.873 64.207 14.2949 63.9414C14.7207 63.6758 15.2227 63.543 15.8008 63.543C16.5117 63.543 17.1016 63.7559 17.5703 64.1816C18.043 64.6074 18.2949 65.1602 18.3262 65.8398H17.3008C17.2695 65.4297 17.1133 65.0938 16.832 64.832C16.5547 64.5664 16.2109 64.4336 15.8008 64.4336C15.25 64.4336 14.8223 64.6328 14.5176 65.0312C14.2168 65.4258 14.0664 65.998 14.0664 66.748V66.9531C14.0664 67.6836 14.2168 68.2461 14.5176 68.6406C14.8184 69.0352 15.248 69.2324 15.8066 69.2324ZM21.6191 68.4121L23.0957 63.6602H24.2559L21.707 70.9785C21.3125 72.0332 20.6855 72.5605 19.8262 72.5605L19.6211 72.543L19.2168 72.4668V71.5879L19.5098 71.6113C19.877 71.6113 20.1621 71.5371 20.3652 71.3887C20.5723 71.2402 20.7422 70.9688 20.875 70.5742L21.1152 69.9297L18.8535 63.6602H20.0371L21.6191 68.4121ZM24.8477 69.1152L25.2227 68.6523C25.6445 68.1055 25.8848 67.2852 25.9434 66.1914L26.043 63.6602H30.127V69.1152H30.9414V71.8633H29.8574V70H25.4336V71.8633H24.3496L24.3555 69.1152H24.8477ZM26.1309 69.1152H29.043V64.6621H27.0918L27.0273 66.1738C26.9609 67.4355 26.6621 68.416 26.1309 69.1152ZM36.0566 70C35.9941 69.875 35.9434 69.6523 35.9043 69.332C35.4004 69.8555 34.7988 70.1172 34.0996 70.1172C33.4746 70.1172 32.9609 69.9414 32.5586 69.5898C32.1602 69.2344 31.9609 68.7852 31.9609 68.2422C31.9609 67.582 32.2109 67.0703 32.7109 66.707C33.2148 66.3398 33.9219 66.1562 34.832 66.1562H35.8867V65.6582C35.8867 65.2793 35.7734 64.9785 35.5469 64.7559C35.3203 64.5293 34.9863 64.416 34.5449 64.416C34.1582 64.416 33.834 64.5137 33.5723 64.709C33.3105 64.9043 33.1797 65.1406 33.1797 65.418H32.0898C32.0898 65.1016 32.2012 64.7969 32.4238 64.5039C32.6504 64.207 32.9551 63.9727 33.3379 63.8008C33.7246 63.6289 34.1484 63.543 34.6094 63.543C35.3398 63.543 35.9121 63.7266 36.3262 64.0938C36.7402 64.457 36.9551 64.959 36.9707 65.5996V68.5176C36.9707 69.0996 37.0449 69.5625 37.1934 69.9062V70H36.0566ZM34.2578 69.1738C34.5977 69.1738 34.9199 69.0859 35.2246 68.9102C35.5293 68.7344 35.75 68.5059 35.8867 68.2246V66.9238H35.0371C33.709 66.9238 33.0449 67.3125 33.0449 68.0898C33.0449 68.4297 33.1582 68.6953 33.3848 68.8867C33.6113 69.0781 33.9023 69.1738 34.2578 69.1738ZM44.0254 66.9004C44.0254 67.8652 43.8047 68.6426 43.3633 69.2324C42.9219 69.8223 42.3242 70.1172 41.5703 70.1172C40.8008 70.1172 40.1953 69.873 39.7539 69.3848V72.4375H38.6699V63.6602H39.6602L39.7129 64.3633C40.1543 63.8164 40.7676 63.543 41.5527 63.543C42.3145 63.543 42.916 63.8301 43.3574 64.4043C43.8027 64.9785 44.0254 65.7773 44.0254 66.8008V66.9004ZM42.9414 66.7773C42.9414 66.0625 42.7891 65.498 42.4844 65.084C42.1797 64.6699 41.7617 64.4629 41.2305 64.4629C40.5742 64.4629 40.082 64.7539 39.7539 65.3359V68.3652C40.0781 68.9434 40.5742 69.2324 41.2422 69.2324C41.7617 69.2324 42.1738 69.0273 42.4785 68.6172C42.7871 68.2031 42.9414 67.5898 42.9414 66.7773ZM47.9512 69.2324C48.3379 69.2324 48.6758 69.1152 48.9648 68.8809C49.2539 68.6465 49.4141 68.3535 49.4453 68.002H50.4707C50.4512 68.3652 50.3262 68.7109 50.0957 69.0391C49.8652 69.3672 49.5566 69.6289 49.1699 69.8242C48.7871 70.0195 48.3809 70.1172 47.9512 70.1172C47.0879 70.1172 46.4004 69.8301 45.8887 69.2559C45.3809 68.6777 45.127 67.8887 45.127 66.8887V66.707C45.127 66.0898 45.2402 65.541 45.4668 65.0605C45.6934 64.5801 46.0176 64.207 46.4395 63.9414C46.8652 63.6758 47.3672 63.543 47.9453 63.543C48.6562 63.543 49.2461 63.7559 49.7148 64.1816C50.1875 64.6074 50.4395 65.1602 50.4707 65.8398H49.4453C49.4141 65.4297 49.2578 65.0938 48.9766 64.832C48.6992 64.5664 48.3555 64.4336 47.9453 64.4336C47.3945 64.4336 46.9668 64.6328 46.6621 65.0312C46.3613 65.4258 46.2109 65.998 46.2109 66.748V66.9531C46.2109 67.6836 46.3613 68.2461 46.6621 68.6406C46.9629 69.0352 47.3926 69.2324 47.9512 69.2324ZM56.4004 64.5391H54.2734V70H53.1895V64.5391H51.1035V63.6602H56.4004V64.5391ZM57.5547 70V63.6602H60.0273C60.8711 63.6602 61.5176 63.8086 61.9668 64.1055C62.4199 64.3984 62.6465 64.8301 62.6465 65.4004C62.6465 65.6934 62.5586 65.959 62.3828 66.1973C62.207 66.4316 61.9473 66.6113 61.6035 66.7363C61.9863 66.8262 62.293 67.002 62.5234 67.2637C62.7578 67.5254 62.875 67.8379 62.875 68.2012C62.875 68.7832 62.6602 69.2285 62.2305 69.5371C61.8047 69.8457 61.2012 70 60.4199 70H57.5547ZM58.6387 67.2168V69.127H60.4316C60.8848 69.127 61.2227 69.043 61.4453 68.875C61.6719 68.707 61.7852 68.4707 61.7852 68.166C61.7852 67.5332 61.3203 67.2168 60.3906 67.2168H58.6387ZM58.6387 66.3496H60.0391C61.0547 66.3496 61.5625 66.0527 61.5625 65.459C61.5625 64.8652 61.082 64.5586 60.1211 64.5391H58.6387V66.3496ZM66.9414 70.1172C66.082 70.1172 65.3828 69.8359 64.8438 69.2734C64.3047 68.707 64.0352 67.9512 64.0352 67.0059V66.8066C64.0352 66.1777 64.1543 65.6172 64.3926 65.125C64.6348 64.6289 64.9707 64.2422 65.4004 63.9648C65.834 63.6836 66.3027 63.543 66.8066 63.543C67.6309 63.543 68.2715 63.8145 68.7285 64.3574C69.1855 64.9004 69.4141 65.6777 69.4141 66.6895V67.1406H65.1191C65.1348 67.7656 65.3164 68.2715 65.6641 68.6582C66.0156 69.041 66.4609 69.2324 67 69.2324C67.3828 69.2324 67.707 69.1543 67.9727 68.998C68.2383 68.8418 68.4707 68.6348 68.6699 68.377L69.332 68.8926C68.8008 69.709 68.0039 70.1172 66.9414 70.1172ZM66.8066 64.4336C66.3691 64.4336 66.002 64.5938 65.7051 64.9141C65.4082 65.2305 65.2246 65.6758 65.1543 66.25H68.3301V66.168C68.2988 65.6172 68.1504 65.1914 67.8848 64.8906C67.6191 64.5859 67.2598 64.4336 66.8066 64.4336ZM75.8535 70H74.7695V67.293H71.8574V70H70.7676V63.6602H71.8574V66.4082H74.7695V63.6602H75.8535V70ZM82.7793 70H81.6953V67.293H78.7832V70H77.6934V63.6602H78.7832V66.4082H81.6953V63.6602H82.7793V70ZM85.709 65.8457H87.3555C88.0742 65.8535 88.6426 66.041 89.0605 66.4082C89.4785 66.7754 89.6875 67.2734 89.6875 67.9023C89.6875 68.5352 89.4727 69.043 89.043 69.4258C88.6133 69.8086 88.0352 70 87.3086 70H84.625V63.6602H85.709V65.8457ZM91.9492 70H90.8594V63.6602H91.9492V70ZM85.709 66.7305V69.1152H87.3203C87.7266 69.1152 88.041 69.0117 88.2637 68.8047C88.4863 68.5938 88.5977 68.3066 88.5977 67.9434C88.5977 67.5918 88.4883 67.3047 88.2695 67.082C88.0547 66.8555 87.752 66.7383 87.3613 66.7305H85.709ZM97.9434 63.6602H99.0273V70H97.9434V65.377L95.0195 70H93.9355V63.6602H95.0195V68.2891L97.9434 63.6602ZM98.2363 61.3516C98.2363 61.8242 98.0742 62.2051 97.75 62.4941C97.4297 62.7793 97.0078 62.9219 96.4844 62.9219C95.9609 62.9219 95.5371 62.7773 95.2129 62.4883C94.8887 62.1992 94.7266 61.8203 94.7266 61.3516H95.6113C95.6113 61.625 95.6855 61.8398 95.834 61.9961C95.9824 62.1484 96.1992 62.2246 96.4844 62.2246C96.7578 62.2246 96.9707 62.1484 97.123 61.9961C97.2793 61.8438 97.3574 61.6289 97.3574 61.3516H98.2363ZM103.838 63.6602H104.928V69.1152H107.846V63.6602H108.93V69.1152H109.686L109.58 71.8809H108.607V70H103.838V63.6602ZM113.488 70.1172C112.629 70.1172 111.93 69.8359 111.391 69.2734C110.852 68.707 110.582 67.9512 110.582 67.0059V66.8066C110.582 66.1777 110.701 65.6172 110.939 65.125C111.182 64.6289 111.518 64.2422 111.947 63.9648C112.381 63.6836 112.85 63.543 113.354 63.543C114.178 63.543 114.818 63.8145 115.275 64.3574C115.732 64.9004 115.961 65.6777 115.961 66.6895V67.1406H111.666C111.682 67.7656 111.863 68.2715 112.211 68.6582C112.562 69.041 113.008 69.2324 113.547 69.2324C113.93 69.2324 114.254 69.1543 114.52 68.998C114.785 68.8418 115.018 68.6348 115.217 68.377L115.879 68.8926C115.348 69.709 114.551 70.1172 113.488 70.1172ZM113.354 64.4336C112.916 64.4336 112.549 64.5938 112.252 64.9141C111.955 65.2305 111.771 65.6758 111.701 66.25H114.877V66.168C114.846 65.6172 114.697 65.1914 114.432 64.8906C114.166 64.5859 113.807 64.4336 113.354 64.4336ZM122.4 70H121.316V67.293H118.404V70H117.314V63.6602H118.404V66.4082H121.316V63.6602H122.4V70ZM128.857 64.5391H126.73V70H125.646V64.5391H123.561V63.6602H128.857V64.5391ZM135.268 66.9004C135.268 67.8652 135.047 68.6426 134.605 69.2324C134.164 69.8223 133.566 70.1172 132.812 70.1172C132.043 70.1172 131.438 69.873 130.996 69.3848V72.4375H129.912V63.6602H130.902L130.955 64.3633C131.396 63.8164 132.01 63.543 132.795 63.543C133.557 63.543 134.158 63.8301 134.6 64.4043C135.045 64.9785 135.268 65.7773 135.268 66.8008V66.9004ZM134.184 66.7773C134.184 66.0625 134.031 65.498 133.727 65.084C133.422 64.6699 133.004 64.4629 132.473 64.4629C131.816 64.4629 131.324 64.7539 130.996 65.3359V68.3652C131.32 68.9434 131.816 69.2324 132.484 69.2324C133.004 69.2324 133.416 69.0273 133.721 68.6172C134.029 68.2031 134.184 67.5898 134.184 66.7773ZM140.564 70C140.502 69.875 140.451 69.6523 140.412 69.332C139.908 69.8555 139.307 70.1172 138.607 70.1172C137.982 70.1172 137.469 69.9414 137.066 69.5898C136.668 69.2344 136.469 68.7852 136.469 68.2422C136.469 67.582 136.719 67.0703 137.219 66.707C137.723 66.3398 138.43 66.1562 139.34 66.1562H140.395V65.6582C140.395 65.2793 140.281 64.9785 140.055 64.7559C139.828 64.5293 139.494 64.416 139.053 64.416C138.666 64.416 138.342 64.5137 138.08 64.709C137.818 64.9043 137.688 65.1406 137.688 65.418H136.598C136.598 65.1016 136.709 64.7969 136.932 64.5039C137.158 64.207 137.463 63.9727 137.846 63.8008C138.232 63.6289 138.656 63.543 139.117 63.543C139.848 63.543 140.42 63.7266 140.834 64.0938C141.248 64.457 141.463 64.959 141.479 65.5996V68.5176C141.479 69.0996 141.553 69.5625 141.701 69.9062V70H140.564ZM138.766 69.1738C139.105 69.1738 139.428 69.0859 139.732 68.9102C140.037 68.7344 140.258 68.5059 140.395 68.2246V66.9238H139.545C138.217 66.9238 137.553 67.3125 137.553 68.0898C137.553 68.4297 137.666 68.6953 137.893 68.8867C138.119 69.0781 138.41 69.1738 138.766 69.1738ZM148.375 63.6602V70H147.285V64.5566H145.129L145 66.9297C144.93 68.0195 144.746 68.7988 144.449 69.2676C144.156 69.7363 143.689 69.9805 143.049 70H142.615V69.0449L142.926 69.0215C143.277 68.9824 143.529 68.7793 143.682 68.4121C143.834 68.0449 143.932 67.3652 143.975 66.373L144.092 63.6602H148.375ZM151.299 65.8457H152.945C153.664 65.8535 154.232 66.041 154.65 66.4082C155.068 66.7754 155.277 67.2734 155.277 67.9023C155.277 68.5352 155.062 69.043 154.633 69.4258C154.203 69.8086 153.625 70 152.898 70H150.215V63.6602H151.299V65.8457ZM151.299 66.7305V69.1152H152.91C153.316 69.1152 153.631 69.0117 153.854 68.8047C154.076 68.5938 154.188 68.3066 154.188 67.9434C154.188 67.5918 154.078 67.3047 153.859 67.082C153.645 66.8555 153.342 66.7383 152.951 66.7305H151.299ZM161.811 70H160.727V67.293H157.814V70H156.725V63.6602H157.814V66.4082H160.727V63.6602H161.811V70ZM164.74 65.8457H166.387C167.105 65.8535 167.674 66.041 168.092 66.4082C168.51 66.7754 168.719 67.2734 168.719 67.9023C168.719 68.5352 168.504 69.043 168.074 69.4258C167.645 69.8086 167.066 70 166.34 70H163.656V63.6602H164.74V65.8457ZM170.98 70H169.891V63.6602H170.98V70ZM164.74 66.7305V69.1152H166.352C166.758 69.1152 167.072 69.0117 167.295 68.8047C167.518 68.5938 167.629 68.3066 167.629 67.9434C167.629 67.5918 167.52 67.3047 167.301 67.082C167.086 66.8555 166.783 66.7383 166.393 66.7305H164.74ZM176.975 63.6602H178.059V70H176.975V65.377L174.051 70H172.967V63.6602H174.051V68.2891L176.975 63.6602ZM177.268 61.3516C177.268 61.8242 177.105 62.2051 176.781 62.4941C176.461 62.7793 176.039 62.9219 175.516 62.9219C174.992 62.9219 174.568 62.7773 174.244 62.4883C173.92 62.1992 173.758 61.8203 173.758 61.3516H174.643C174.643 61.625 174.717 61.8398 174.865 61.9961C175.014 62.1484 175.23 62.2246 175.516 62.2246C175.789 62.2246 176.002 62.1484 176.154 61.9961C176.311 61.8438 176.389 61.6289 176.389 61.3516H177.268ZM37.5098 82.5645L39.666 77.6602H41.0195V84H39.9355V79.3887L37.8848 84H37.1348L35.043 79.2891V84H33.959V77.6602H35.3652L37.5098 82.5645ZM44.8398 82.4121L46.3164 77.6602H47.4766L44.9277 84.9785C44.5332 86.0332 43.9062 86.5605 43.0469 86.5605L42.8418 86.543L42.4375 86.4668V85.5879L42.7305 85.6113C43.0977 85.6113 43.3828 85.5371 43.5859 85.3887C43.793 85.2402 43.9629 84.9688 44.0957 84.5742L44.3359 83.9297L42.0742 77.6602H43.2578L44.8398 82.4121ZM51.9355 79.3945C51.9355 79.0977 51.8223 78.8633 51.5957 78.6914C51.3691 78.5156 51.0586 78.4277 50.6641 78.4277C50.2812 78.4277 49.9609 78.5273 49.7031 78.7266C49.4492 78.9258 49.3223 79.1602 49.3223 79.4297H48.2441C48.2441 78.8789 48.4746 78.4277 48.9355 78.0762C49.3965 77.7246 49.9727 77.5488 50.6641 77.5488C51.4062 77.5488 51.9844 77.709 52.3984 78.0293C52.8125 78.3457 53.0195 78.7988 53.0195 79.3887C53.0195 79.6738 52.9336 79.9355 52.7617 80.1738C52.5898 80.4121 52.3457 80.6016 52.0293 80.7422C52.7676 80.9922 53.1367 81.4844 53.1367 82.2188C53.1367 82.8008 52.9121 83.2617 52.4629 83.6016C52.0137 83.9414 51.4141 84.1113 50.6641 84.1113C49.9336 84.1113 49.3301 83.9336 48.8535 83.5781C48.3809 83.2188 48.1445 82.7344 48.1445 82.125H49.2227C49.2227 82.4336 49.3594 82.6992 49.6328 82.9219C49.9102 83.1406 50.2539 83.25 50.6641 83.25C51.0781 83.25 51.4121 83.1543 51.666 82.9629C51.9199 82.7715 52.0469 82.5234 52.0469 82.2188C52.0469 81.8633 51.9395 81.6094 51.7246 81.457C51.5137 81.3008 51.1836 81.2227 50.7344 81.2227H49.6504V80.3086H50.8281C51.5664 80.2891 51.9355 79.9844 51.9355 79.3945ZM57.1738 84.1172C56.3145 84.1172 55.6152 83.8359 55.0762 83.2734C54.5371 82.707 54.2676 81.9512 54.2676 81.0059V80.8066C54.2676 80.1777 54.3867 79.6172 54.625 79.125C54.8672 78.6289 55.2031 78.2422 55.6328 77.9648C56.0664 77.6836 56.5352 77.543 57.0391 77.543C57.8633 77.543 58.5039 77.8145 58.9609 78.3574C59.418 78.9004 59.6465 79.6777 59.6465 80.6895V81.1406H55.3516C55.3672 81.7656 55.5488 82.2715 55.8965 82.6582C56.248 83.041 56.6934 83.2324 57.2324 83.2324C57.6152 83.2324 57.9395 83.1543 58.2051 82.998C58.4707 82.8418 58.7031 82.6348 58.9023 82.377L59.5645 82.8926C59.0332 83.709 58.2363 84.1172 57.1738 84.1172ZM57.0391 78.4336C56.6016 78.4336 56.2344 78.5938 55.9375 78.9141C55.6406 79.2305 55.457 79.6758 55.3867 80.25H58.5625V80.168C58.5312 79.6172 58.3828 79.1914 58.1172 78.8906C57.8516 78.5859 57.4922 78.4336 57.0391 78.4336ZM65.0078 77.6602H66.0918V84H65.0078V79.377L62.084 84H61V77.6602H62.084V82.2891L65.0078 77.6602ZM65.3008 75.3516C65.3008 75.8242 65.1387 76.2051 64.8145 76.4941C64.4941 76.7793 64.0723 76.9219 63.5488 76.9219C63.0254 76.9219 62.6016 76.7773 62.2773 76.4883C61.9531 76.1992 61.791 75.8203 61.791 75.3516H62.6758C62.6758 75.625 62.75 75.8398 62.8984 75.9961C63.0469 76.1484 63.2637 76.2246 63.5488 76.2246C63.8223 76.2246 64.0352 76.1484 64.1875 75.9961C64.3438 75.8438 64.4219 75.6289 64.4219 75.3516H65.3008ZM73.3516 83.2324C73.7383 83.2324 74.0762 83.1152 74.3652 82.8809C74.6543 82.6465 74.8145 82.3535 74.8457 82.002H75.8711C75.8516 82.3652 75.7266 82.7109 75.4961 83.0391C75.2656 83.3672 74.957 83.6289 74.5703 83.8242C74.1875 84.0195 73.7812 84.1172 73.3516 84.1172C72.4883 84.1172 71.8008 83.8301 71.2891 83.2559C70.7812 82.6777 70.5273 81.8887 70.5273 80.8887V80.707C70.5273 80.0898 70.6406 79.541 70.8672 79.0605C71.0938 78.5801 71.418 78.207 71.8398 77.9414C72.2656 77.6758 72.7676 77.543 73.3457 77.543C74.0566 77.543 74.6465 77.7559 75.1152 78.1816C75.5879 78.6074 75.8398 79.1602 75.8711 79.8398H74.8457C74.8145 79.4297 74.6582 79.0938 74.377 78.832C74.0996 78.5664 73.7559 78.4336 73.3457 78.4336C72.7949 78.4336 72.3672 78.6328 72.0625 79.0312C71.7617 79.4258 71.6113 79.998 71.6113 80.748V80.9531C71.6113 81.6836 71.7617 82.2461 72.0625 82.6406C72.3633 83.0352 72.793 83.2324 73.3516 83.2324ZM76.8027 80.7715C76.8027 80.1504 76.9238 79.5918 77.166 79.0957C77.4121 78.5996 77.752 78.2168 78.1855 77.9473C78.623 77.6777 79.1211 77.543 79.6797 77.543C80.543 77.543 81.2402 77.8418 81.7715 78.4395C82.3066 79.0371 82.5742 79.832 82.5742 80.8242V80.9004C82.5742 81.5176 82.4551 82.0723 82.2168 82.5645C81.9824 83.0527 81.6445 83.4336 81.2031 83.707C80.7656 83.9805 80.2617 84.1172 79.6914 84.1172C78.832 84.1172 78.1348 83.8184 77.5996 83.2207C77.0684 82.623 76.8027 81.832 76.8027 80.8477V80.7715ZM77.8926 80.9004C77.8926 81.6035 78.0547 82.168 78.3789 82.5938C78.707 83.0195 79.1445 83.2324 79.6914 83.2324C80.2422 83.2324 80.6797 83.0176 81.0039 82.5879C81.3281 82.1543 81.4902 81.5488 81.4902 80.7715C81.4902 80.0762 81.3242 79.5137 80.9922 79.084C80.6641 78.6504 80.2266 78.4336 79.6797 78.4336C79.1445 78.4336 78.7129 78.6465 78.3848 79.0723C78.0566 79.498 77.8926 80.1074 77.8926 80.9004ZM84.0332 84V77.6602H86.5059C87.3496 77.6602 87.9961 77.8086 88.4453 78.1055C88.8984 78.3984 89.125 78.8301 89.125 79.4004C89.125 79.6934 89.0371 79.959 88.8613 80.1973C88.6855 80.4316 88.4258 80.6113 88.082 80.7363C88.4648 80.8262 88.7715 81.002 89.002 81.2637C89.2363 81.5254 89.3535 81.8379 89.3535 82.2012C89.3535 82.7832 89.1387 83.2285 88.709 83.5371C88.2832 83.8457 87.6797 84 86.8984 84H84.0332ZM85.1172 81.2168V83.127H86.9102C87.3633 83.127 87.7012 83.043 87.9238 82.875C88.1504 82.707 88.2637 82.4707 88.2637 82.166C88.2637 81.5332 87.7988 81.2168 86.8691 81.2168H85.1172ZM85.1172 80.3496H86.5176C87.5332 80.3496 88.041 80.0527 88.041 79.459C88.041 78.8652 87.5605 78.5586 86.5996 78.5391H85.1172V80.3496ZM96.1445 80.9004C96.1445 81.8652 95.9238 82.6426 95.4824 83.2324C95.041 83.8223 94.4434 84.1172 93.6895 84.1172C92.9199 84.1172 92.3145 83.873 91.873 83.3848V86.4375H90.7891V77.6602H91.7793L91.832 78.3633C92.2734 77.8164 92.8867 77.543 93.6719 77.543C94.4336 77.543 95.0352 77.8301 95.4766 78.4043C95.9219 78.9785 96.1445 79.7773 96.1445 80.8008V80.9004ZM95.0605 80.7773C95.0605 80.0625 94.9082 79.498 94.6035 79.084C94.2988 78.6699 93.8809 78.4629 93.3496 78.4629C92.6934 78.4629 92.2012 78.7539 91.873 79.3359V82.3652C92.1973 82.9434 92.6934 83.2324 93.3613 83.2324C93.8809 83.2324 94.293 83.0273 94.5977 82.6172C94.9062 82.2031 95.0605 81.5898 95.0605 80.7773ZM100.158 84.1172C99.2988 84.1172 98.5996 83.8359 98.0605 83.2734C97.5215 82.707 97.252 81.9512 97.252 81.0059V80.8066C97.252 80.1777 97.3711 79.6172 97.6094 79.125C97.8516 78.6289 98.1875 78.2422 98.6172 77.9648C99.0508 77.6836 99.5195 77.543 100.023 77.543C100.848 77.543 101.488 77.8145 101.945 78.3574C102.402 78.9004 102.631 79.6777 102.631 80.6895V81.1406H98.3359C98.3516 81.7656 98.5332 82.2715 98.8809 82.6582C99.2324 83.041 99.6777 83.2324 100.217 83.2324C100.6 83.2324 100.924 83.1543 101.189 82.998C101.455 82.8418 101.688 82.6348 101.887 82.377L102.549 82.8926C102.018 83.709 101.221 84.1172 100.158 84.1172ZM100.023 78.4336C99.5859 78.4336 99.2188 78.5938 98.9219 78.9141C98.625 79.2305 98.4414 79.6758 98.3711 80.25H101.547V80.168C101.516 79.6172 101.367 79.1914 101.102 78.8906C100.836 78.5859 100.477 78.4336 100.023 78.4336ZM107.541 82.5645L109.697 77.6602H111.051V84H109.967V79.3887L107.916 84H107.166L105.074 79.2891V84H103.99V77.6602H105.396L107.541 82.5645ZM115.428 84.1172C114.568 84.1172 113.869 83.8359 113.33 83.2734C112.791 82.707 112.521 81.9512 112.521 81.0059V80.8066C112.521 80.1777 112.641 79.6172 112.879 79.125C113.121 78.6289 113.457 78.2422 113.887 77.9648C114.32 77.6836 114.789 77.543 115.293 77.543C116.117 77.543 116.758 77.8145 117.215 78.3574C117.672 78.9004 117.9 79.6777 117.9 80.6895V81.1406H113.605C113.621 81.7656 113.803 82.2715 114.15 82.6582C114.502 83.041 114.947 83.2324 115.486 83.2324C115.869 83.2324 116.193 83.1543 116.459 82.998C116.725 82.8418 116.957 82.6348 117.156 82.377L117.818 82.8926C117.287 83.709 116.49 84.1172 115.428 84.1172ZM115.293 78.4336C114.855 78.4336 114.488 78.5938 114.191 78.9141C113.895 79.2305 113.711 79.6758 113.641 80.25H116.816V80.168C116.785 79.6172 116.637 79.1914 116.371 78.8906C116.105 78.5859 115.746 78.4336 115.293 78.4336ZM124.34 84H123.256V81.293H120.344V84H119.254V77.6602H120.344V80.4082H123.256V77.6602H124.34V84ZM131.266 84H130.182V81.293H127.27V84H126.18V77.6602H127.27V80.4082H130.182V77.6602H131.266V84ZM132.725 80.7715C132.725 80.1504 132.846 79.5918 133.088 79.0957C133.334 78.5996 133.674 78.2168 134.107 77.9473C134.545 77.6777 135.043 77.543 135.602 77.543C136.465 77.543 137.162 77.8418 137.693 78.4395C138.229 79.0371 138.496 79.832 138.496 80.8242V80.9004C138.496 81.5176 138.377 82.0723 138.139 82.5645C137.904 83.0527 137.566 83.4336 137.125 83.707C136.688 83.9805 136.184 84.1172 135.613 84.1172C134.754 84.1172 134.057 83.8184 133.521 83.2207C132.99 82.623 132.725 81.832 132.725 80.8477V80.7715ZM133.814 80.9004C133.814 81.6035 133.977 82.168 134.301 82.5938C134.629 83.0195 135.066 83.2324 135.613 83.2324C136.164 83.2324 136.602 83.0176 136.926 82.5879C137.25 82.1543 137.412 81.5488 137.412 80.7715C137.412 80.0762 137.246 79.5137 136.914 79.084C136.586 78.6504 136.148 78.4336 135.602 78.4336C135.066 78.4336 134.635 78.6465 134.307 79.0723C133.979 79.498 133.814 80.1074 133.814 80.9004ZM143.957 77.6602H145.041V84H143.957V79.377L141.033 84H139.949V77.6602H141.033V82.2891L143.957 77.6602ZM144.25 75.3516C144.25 75.8242 144.088 76.2051 143.764 76.4941C143.443 76.7793 143.021 76.9219 142.498 76.9219C141.975 76.9219 141.551 76.7773 141.227 76.4883C140.902 76.1992 140.74 75.8203 140.74 75.3516H141.625C141.625 75.625 141.699 75.8398 141.848 75.9961C141.996 76.1484 142.213 76.2246 142.498 76.2246C142.771 76.2246 142.984 76.1484 143.137 75.9961C143.293 75.8438 143.371 75.6289 143.371 75.3516H144.25ZM50.9688 91.6602H52.0527V98H50.9688V93.377L48.0449 98H46.9609V91.6602H48.0449V96.2891L50.9688 91.6602ZM56.3359 97.2324C56.7227 97.2324 57.0605 97.1152 57.3496 96.8809C57.6387 96.6465 57.7988 96.3535 57.8301 96.002H58.8555C58.8359 96.3652 58.7109 96.7109 58.4805 97.0391C58.25 97.3672 57.9414 97.6289 57.5547 97.8242C57.1719 98.0195 56.7656 98.1172 56.3359 98.1172C55.4727 98.1172 54.7852 97.8301 54.2734 97.2559C53.7656 96.6777 53.5117 95.8887 53.5117 94.8887V94.707C53.5117 94.0898 53.625 93.541 53.8516 93.0605C54.0781 92.5801 54.4023 92.207 54.8242 91.9414C55.25 91.6758 55.752 91.543 56.3301 91.543C57.041 91.543 57.6309 91.7559 58.0996 92.1816C58.5723 92.6074 58.8242 93.1602 58.8555 93.8398H57.8301C57.7988 93.4297 57.6426 93.0938 57.3613 92.832C57.084 92.5664 56.7402 92.4336 56.3301 92.4336C55.7793 92.4336 55.3516 92.6328 55.0469 93.0312C54.7461 93.4258 54.5957 93.998 54.5957 94.748V94.9531C54.5957 95.6836 54.7461 96.2461 55.0469 96.6406C55.3477 97.0352 55.7773 97.2324 56.3359 97.2324ZM64.7852 92.5391H62.6582V98H61.5742V92.5391H59.4883V91.6602H64.7852V92.5391ZM65.3066 94.7715C65.3066 94.1504 65.4277 93.5918 65.6699 93.0957C65.916 92.5996 66.2559 92.2168 66.6895 91.9473C67.127 91.6777 67.625 91.543 68.1836 91.543C69.0469 91.543 69.7441 91.8418 70.2754 92.4395C70.8105 93.0371 71.0781 93.832 71.0781 94.8242V94.9004C71.0781 95.5176 70.959 96.0723 70.7207 96.5645C70.4863 97.0527 70.1484 97.4336 69.707 97.707C69.2695 97.9805 68.7656 98.1172 68.1953 98.1172C67.3359 98.1172 66.6387 97.8184 66.1035 97.2207C65.5723 96.623 65.3066 95.832 65.3066 94.8477V94.7715ZM66.3965 94.9004C66.3965 95.6035 66.5586 96.168 66.8828 96.5938C67.2109 97.0195 67.6484 97.2324 68.1953 97.2324C68.7461 97.2324 69.1836 97.0176 69.5078 96.5879C69.832 96.1543 69.9941 95.5488 69.9941 94.7715C69.9941 94.0762 69.8281 93.5137 69.4961 93.084C69.168 92.6504 68.7305 92.4336 68.1836 92.4336C67.6484 92.4336 67.2168 92.6465 66.8887 93.0723C66.5605 93.498 66.3965 94.1074 66.3965 94.9004ZM77.793 94.9004C77.793 95.8652 77.5723 96.6426 77.1309 97.2324C76.6895 97.8223 76.0918 98.1172 75.3379 98.1172C74.5684 98.1172 73.9629 97.873 73.5215 97.3848V100.438H72.4375V91.6602H73.4277L73.4805 92.3633C73.9219 91.8164 74.5352 91.543 75.3203 91.543C76.082 91.543 76.6836 91.8301 77.125 92.4043C77.5703 92.9785 77.793 93.7773 77.793 94.8008V94.9004ZM76.709 94.7773C76.709 94.0625 76.5566 93.498 76.252 93.084C75.9473 92.6699 75.5293 92.4629 74.998 92.4629C74.3418 92.4629 73.8496 92.7539 73.5215 93.3359V96.3652C73.8457 96.9434 74.3418 97.2324 75.0098 97.2324C75.5293 97.2324 75.9414 97.0273 76.2461 96.6172C76.5547 96.2031 76.709 95.5898 76.709 94.7773ZM83.2773 91.6602H84.3613V98H83.2773V93.377L80.3535 98H79.2695V91.6602H80.3535V96.2891L83.2773 91.6602ZM90.2031 91.6602H91.2871V98H90.2031V93.377L87.2793 98H86.1953V91.6602H87.2793V96.2891L90.2031 91.6602ZM97.2988 94.6602V98H96.1738V89.4688H99.3203C100.254 89.4688 100.984 89.707 101.512 90.1836C102.043 90.6602 102.309 91.291 102.309 92.0762C102.309 92.9043 102.049 93.543 101.529 93.9922C101.014 94.4375 100.273 94.6602 99.3086 94.6602H97.2988ZM97.2988 93.7402H99.3203C99.9219 93.7402 100.383 93.5996 100.703 93.3184C101.023 93.0332 101.184 92.623 101.184 92.0879C101.184 91.5801 101.023 91.1738 100.703 90.8691C100.383 90.5645 99.9434 90.4062 99.3848 90.3945H97.2988V93.7402ZM103.205 94.7715C103.205 94.1504 103.326 93.5918 103.568 93.0957C103.814 92.5996 104.154 92.2168 104.588 91.9473C105.025 91.6777 105.523 91.543 106.082 91.543C106.945 91.543 107.643 91.8418 108.174 92.4395C108.709 93.0371 108.977 93.832 108.977 94.8242V94.9004C108.977 95.5176 108.857 96.0723 108.619 96.5645C108.385 97.0527 108.047 97.4336 107.605 97.707C107.168 97.9805 106.664 98.1172 106.094 98.1172C105.234 98.1172 104.537 97.8184 104.002 97.2207C103.471 96.623 103.205 95.832 103.205 94.8477V94.7715ZM104.295 94.9004C104.295 95.6035 104.457 96.168 104.781 96.5938C105.109 97.0195 105.547 97.2324 106.094 97.2324C106.645 97.2324 107.082 97.0176 107.406 96.5879C107.73 96.1543 107.893 95.5488 107.893 94.7715C107.893 94.0762 107.727 93.5137 107.395 93.084C107.066 92.6504 106.629 92.4336 106.082 92.4336C105.547 92.4336 105.115 92.6465 104.787 93.0723C104.459 93.498 104.295 94.1074 104.295 94.9004ZM112.879 97.2324C113.266 97.2324 113.604 97.1152 113.893 96.8809C114.182 96.6465 114.342 96.3535 114.373 96.002H115.398C115.379 96.3652 115.254 96.7109 115.023 97.0391C114.793 97.3672 114.484 97.6289 114.098 97.8242C113.715 98.0195 113.309 98.1172 112.879 98.1172C112.016 98.1172 111.328 97.8301 110.816 97.2559C110.309 96.6777 110.055 95.8887 110.055 94.8887V94.707C110.055 94.0898 110.168 93.541 110.395 93.0605C110.621 92.5801 110.945 92.207 111.367 91.9414C111.793 91.6758 112.295 91.543 112.873 91.543C113.584 91.543 114.174 91.7559 114.643 92.1816C115.115 92.6074 115.367 93.1602 115.398 93.8398H114.373C114.342 93.4297 114.186 93.0938 113.904 92.832C113.627 92.5664 113.283 92.4336 112.873 92.4336C112.322 92.4336 111.895 92.6328 111.59 93.0312C111.289 93.4258 111.139 93.998 111.139 94.748V94.9531C111.139 95.6836 111.289 96.2461 111.59 96.6406C111.891 97.0352 112.32 97.2324 112.879 97.2324ZM119.16 97.2324C119.547 97.2324 119.885 97.1152 120.174 96.8809C120.463 96.6465 120.623 96.3535 120.654 96.002H121.68C121.66 96.3652 121.535 96.7109 121.305 97.0391C121.074 97.3672 120.766 97.6289 120.379 97.8242C119.996 98.0195 119.59 98.1172 119.16 98.1172C118.297 98.1172 117.609 97.8301 117.098 97.2559C116.59 96.6777 116.336 95.8887 116.336 94.8887V94.707C116.336 94.0898 116.449 93.541 116.676 93.0605C116.902 92.5801 117.227 92.207 117.648 91.9414C118.074 91.6758 118.576 91.543 119.154 91.543C119.865 91.543 120.455 91.7559 120.924 92.1816C121.396 92.6074 121.648 93.1602 121.68 93.8398H120.654C120.623 93.4297 120.467 93.0938 120.186 92.832C119.908 92.5664 119.564 92.4336 119.154 92.4336C118.604 92.4336 118.176 92.6328 117.871 93.0312C117.57 93.4258 117.42 93.998 117.42 94.748V94.9531C117.42 95.6836 117.57 96.2461 117.871 96.6406C118.172 97.0352 118.602 97.2324 119.16 97.2324ZM127 91.6602H128.084V98H127V93.377L124.076 98H122.992V91.6602H124.076V96.2891L127 91.6602ZM133.926 91.6602H135.01V98H133.926V93.377L131.002 98H129.918V91.6602H131.002V96.2891L133.926 91.6602Z" fill="black"/>
<path d="M56.2786 29.167V37.5003C56.9748 35.6948 58.0887 33.7503 59.4811 32.3614C61.0127 30.8337 62.6836 29.7225 64.633 29.167H56.2786Z" fill="black"/>
<path d="M121.722 38.8892V29.167H113.367C115.317 29.8614 116.987 31.2503 118.519 32.917C120.051 34.5837 121.025 36.667 121.722 38.8892Z" fill="black"/>
<path d="M89.6963 0L79.9495 5.55556H99.4431L89.6963 0Z" fill="black"/>
<path d="M123.114 18.0557V27.7779H132.861C132.722 22.639 128.266 18.3334 123.114 18.0557Z" fill="black"/>
<path d="M54.886 27.7779V18.0557C49.7341 18.1946 45.2784 22.639 45.1392 27.7779H54.886Z" fill="black"/>
<path d="M43.7468 29.167H34V38.8892H43.7468V29.167Z" fill="black"/>
<path d="M43.7468 40.2773H34V49.9996H43.7468V40.2773Z" fill="black"/>
<path d="M54.886 29.167H45.1392V38.8892H54.886V29.167Z" fill="black"/>
<path d="M54.886 40.2773H45.1392V49.9996H54.886V40.2773Z" fill="black"/>
<path d="M66.0254 6.94434H56.2786V16.6666H66.0254V6.94434Z" fill="black"/>
<path d="M66.0254 18.0557H56.2786V27.7779H66.0254V18.0557Z" fill="black"/>
<path d="M77.1646 6.94434H67.4177V16.6666H77.1646V6.94434Z" fill="black"/>
<path d="M77.1646 18.0557H67.4177V27.7779H77.1646V18.0557Z" fill="black"/>
<path d="M88.3037 18.0557H78.5569V27.7779H88.3037V18.0557Z" fill="black"/>
<path d="M88.3037 6.94434H78.5569V16.6666H88.3037V6.94434Z" fill="black"/>
<path d="M99.4431 6.94434H89.6963V16.6666H99.4431V6.94434Z" fill="black"/>
<path d="M99.4431 18.0557H89.6963V27.7779H99.4431V18.0557Z" fill="black"/>
<path d="M110.582 6.94434H100.835V16.6666H110.582V6.94434Z" fill="black"/>
<path d="M110.582 18.0557H100.835V27.7779H110.582V18.0557Z" fill="black"/>
<path d="M121.721 6.94434H111.975V16.6666H121.721V6.94434Z" fill="black"/>
<path d="M121.721 18.0557H111.975V27.7779H121.721V18.0557Z" fill="black"/>
<path d="M132.861 29.167H123.114V38.8892H132.861V29.167Z" fill="black"/>
<path d="M132.861 40.2773H123.114V49.9996H132.861V40.2773Z" fill="black"/>
<path d="M144 29.167H134.253V38.8892H144V29.167Z" fill="black"/>
<path d="M144 40.2773H134.253V49.9996H144V40.2773Z" fill="black"/>
</svg>
