<svg width="140" height="140" viewBox="0 0 140 140" fill="none" xmlns="http://www.w3.org/2000/svg">
<rect width="140" height="140" fill="#7A1928"/>
<g clip-path="url(#clip0)">
<path fill-rule="evenodd" clip-rule="evenodd" d="M67.7714 27.7109L60.5243 33.1158L61.3816 24.9422L57.8882 22.6364L64.875 19.8018L67.8372 14L71.0012 17.8228L78.3183 16.5052L74.6272 20.7875L75.2861 29.2246L67.7714 27.7109Z" fill="#BB974A"/>
<path fill-rule="evenodd" clip-rule="evenodd" d="M45.2939 70.8868L54.193 24.0198C55.7088 25.0744 57.2909 26.195 58.939 27.3814L53.7969 70.8868H45.2939ZM56.7632 70.8868L59.9931 37.0052L67.1125 31.8639L66.1243 70.8868H56.7632ZM79.2407 70.8868L75.8798 32.7204L69.0239 30.9407V70.8868H79.2407ZM93.4787 70.8868L82.4055 15.3184L76.5387 22.4378L82.1387 70.8868H93.4787Z" fill="white"/>
<path d="M37.1989 84.7837V103.793H39.695V80.1579H36.0171L32.2693 99.0324L28.3863 80.1579H24.7068V103.793H27.002V84.9525L30.9187 103.759H33.451L37.1989 84.7837ZM51.0424 99.0307L51.9541 103.793H54.5894L50.0633 80.1579H46.2478L41.7234 103.793H44.1544L45.0661 99.0324L51.0424 99.0307ZM48.0036 83.1275L50.671 96.7701H45.4004L48.0036 83.1275ZM56.6507 80.1562V103.793H59.286V94.4741H61.6157C65.3636 94.4741 67.1194 92.5158 67.1194 88.7679V85.9317C67.1194 82.3526 65.5324 80.1579 61.8183 80.1579L56.6507 80.1562ZM59.286 92.109V82.556H61.8183C63.7429 82.556 64.5195 83.6365 64.5195 85.7974V88.9375C64.5195 91.1998 63.5741 92.1114 61.6157 92.1114L59.286 92.109ZM69.1774 80.1579V103.793H86.0902V80.1579H83.4903V101.396H78.9658V80.1579H76.3306V101.396H71.8077V80.1579H69.1774ZM97.4351 99.0324L98.3468 103.793H100.982L96.456 80.1579H92.6406L88.1186 103.793H90.5496L91.4613 99.0324H97.4351ZM94.3963 83.1292L97.0637 96.7701H91.7931L94.3963 83.1292ZM112.596 82.5527V103.793H115.232V80.1579H105.606L104.965 98.0532C104.897 100.315 104.526 101.43 102.329 101.43V103.827H102.768C106.381 103.793 107.394 101.666 107.529 97.9181L108.069 82.5552L112.596 82.5527Z" fill="#BB974A"/>
<path d="M59.8671 111.249V109.849H54.3528V123.684H55.8747V111.249H59.8671ZM61.366 109.849V123.684H62.9076V118.229H64.2714C66.4653 118.229 67.493 117.083 67.493 114.889V113.225C67.493 111.13 66.5641 109.849 64.39 109.849H61.366ZM62.9076 116.849V111.249H64.39C65.5165 111.249 65.9711 111.881 65.9711 113.143V114.981C65.9711 116.305 65.4177 116.839 64.2714 116.839L62.9076 116.849ZM73.7584 120.9L74.2954 123.684H75.837L73.1886 109.849H70.9551L68.3067 123.684H69.7297L70.2601 120.897L73.7584 120.9ZM71.9796 111.595L73.5443 119.583H70.461L71.9796 111.595ZM85.3636 125.578V122.317H84.3161V109.849H78.7622L78.2286 120.307C78.275 121.031 78.0573 121.748 77.6158 122.323H76.7264V125.578H78.2088V123.684H83.8615V125.578H85.3636ZM80.1853 111.249H82.7547V122.317H79.0982C79.5526 121.741 79.7778 121.017 79.7307 120.284L80.1853 111.249Z" fill="white"/>
</g>
<defs>
<clipPath id="clip0">
<rect x="24.7058" y="14" width="90.5232" height="111.581" fill="white"/>
</clipPath>
</defs>
</svg>
