<svg width="140" height="140" viewBox="0 0 140 140" fill="none" xmlns="http://www.w3.org/2000/svg">
<rect x="14" y="14" width="112" height="112" fill="#7A1928"/>
<g clip-path="url(#clip0)">
<path fill-rule="evenodd" clip-rule="evenodd" d="M68.2171 36.1689L62.4194 40.4928L63.1053 33.954L60.3105 32.1093L65.9 29.8416L68.2698 25.2002L70.801 28.2585L76.6546 27.2043L73.7018 30.6302L74.2288 37.3799L68.2171 36.1689Z" fill="#BB974A"/>
<path fill-rule="evenodd" clip-rule="evenodd" d="M50.2351 70.7097L57.3544 33.216C58.567 34.0597 59.8326 34.9562 61.1512 35.9053L57.0375 70.7097H50.2351ZM59.4105 70.7097L61.9945 43.6043L67.69 39.4913L66.8994 70.7097H59.4105ZM77.3925 70.7097L74.7038 40.1765L69.2191 38.7528V70.7097H77.3925ZM88.7829 70.7097L79.9243 26.2549L75.2309 31.9504L79.7109 70.7097H88.7829Z" fill="white"/>
<path d="M43.7591 81.8279V97.0355H45.756V78.1273H42.8137L39.8154 93.2269L36.709 78.1273H33.7654V97.0355H35.6015V81.963L38.7349 97.0085H40.7608L43.7591 81.8279ZM54.8339 93.2255L55.5632 97.0355H57.6715L54.0506 78.1273H50.9982L47.3787 97.0355H49.3235L50.0528 93.2269L54.8339 93.2255ZM52.4028 80.503L54.5368 91.4171H50.3203L52.4028 80.503ZM59.3205 78.126V97.0355H61.4287V89.5803H63.2925C66.2908 89.5803 67.6955 88.0136 67.6955 85.0153V82.7463C67.6955 79.8831 66.4259 78.1273 63.4546 78.1273L59.3205 78.126ZM61.4287 87.6881V80.0458H63.4546C64.9943 80.0458 65.6155 80.9102 65.6155 82.6389V85.151C65.6155 86.9608 64.8592 87.6901 63.2925 87.6901L61.4287 87.6881ZM69.3419 78.1273V97.0355H82.8721V78.1273H80.7922V95.1177H77.1726V78.1273H75.0644V95.1177H71.4461V78.1273H69.3419ZM91.9481 93.2269L92.6774 97.0355H94.7856L91.1647 78.1273H88.1124L84.4948 97.0355H86.4396L87.169 93.2269H91.9481ZM89.517 80.5043L91.6509 91.4171H87.4345L89.517 80.5043ZM104.077 80.0432V97.0355H106.185V78.1273H98.4849L97.9717 92.4435C97.9177 94.2533 97.6205 95.1447 95.8635 95.1447V97.0625H96.2146C99.1049 97.0355 99.9152 95.3338 100.023 92.3355L100.455 80.0451L104.077 80.0432Z" fill="#BB974A"/>
<path d="M61.8937 102.999V101.879H57.4822V112.947H58.6997V102.999H61.8937ZM63.0927 101.879V112.947H64.326V108.583H65.417C67.1722 108.583 67.9944 107.666 67.9944 105.911V104.58C67.9944 102.904 67.2512 101.879 65.5119 101.879H63.0927ZM64.326 107.479V102.999H65.5119C66.4132 102.999 66.7769 103.505 66.7769 104.514V105.985C66.7769 107.044 66.3341 107.471 65.417 107.471L64.326 107.479ZM73.0067 110.72L73.4362 112.947H74.6696L72.5508 101.879H70.7641L68.6453 112.947H69.7837L70.208 110.718L73.0067 110.72ZM71.5836 103.276L72.8354 109.666H70.3688L71.5836 103.276ZM82.2908 114.462V111.853H81.4528V101.879H77.0097L76.5828 110.246C76.62 110.825 76.4458 111.398 76.0926 111.859H75.3811V114.462H76.567V112.947H81.0891V114.462H82.2908ZM78.1482 102.999H80.2037V111.853H77.2785C77.642 111.393 77.8222 110.813 77.7845 110.228L78.1482 102.999Z" fill="white"/>
</g>
<defs>
<clipPath id="clip0">
<rect x="33.7646" y="25.2002" width="72.4185" height="89.2647" fill="white"/>
</clipPath>
</defs>
</svg>
