<svg xmlns="http://www.w3.org/2000/svg" xmlns:xlink="http://www.w3.org/1999/xlink" width="237.484" height="52" viewBox="0 0 237.484 52">
  <defs>
    <clipPath id="clip-path">
      <path id="Path_60" data-name="Path 60" d="M619.047,52a38.6,38.6,0,0,0-8.212,17.472A53.157,53.157,0,0,0,609.7,79.955h9.347Z" transform="translate(-609.7 -52)"/>
    </clipPath>
    <linearGradient id="linear-gradient" x1="0.002" y1="0.998" x2="0.8" y2="0.2" gradientUnits="objectBoundingBox">
      <stop offset="0" stop-color="#e9a744"/>
      <stop offset="0.476" stop-color="#f7d270"/>
      <stop offset="0.652" stop-color="#e9a744"/>
      <stop offset="1" stop-color="#d58b46"/>
    </linearGradient>
    <clipPath id="clip-path-2">
      <path id="Path_61" data-name="Path 61" d="M684.061,47.079c-.087-.349-.087-.7-.175-1.136a.321.321,0,0,0-.087-.262,2.555,2.555,0,0,0-.175-.786c0-.087-.087-.262-.087-.349-.087-.262-.087-.437-.175-.7,0-.175-.087-.262-.087-.437-.087-.175-.087-.437-.175-.612,0-.175-.087-.262-.087-.437a5.581,5.581,0,0,1-.175-.612c-.087-.175-.087-.262-.175-.437a1.242,1.242,0,0,1-.175-.524c-.087-.175-.087-.262-.175-.437s-.087-.349-.175-.437c-.087-.175-.175-.262-.175-.437-.087-.175-.175-.262-.262-.437a1.912,1.912,0,0,0-.262-.437,1.907,1.907,0,0,1-.262-.437,1.908,1.908,0,0,0-.262-.437c-.087-.087-.175-.262-.262-.349a.873.873,0,0,0-.349-.437,1.206,1.206,0,0,1-.262-.349,1.9,1.9,0,0,0-.349-.437l-.262-.262c-.175-.175-.262-.349-.437-.437l-.262-.262-.437-.437c-.087-.087-.175-.175-.262-.175a2.316,2.316,0,0,0-.524-.437l-.175-.175a2.652,2.652,0,0,0-.611-.437c-.087,0-.087-.087-.175-.087a3.059,3.059,0,0,0-.7-.437.085.085,0,0,1-.087-.087c-4.718-2.97-11.531-4.106-21.053-2.621-1.136.175-2.184.437-3.232.612a14.3,14.3,0,0,1,2.184,1.835v5.591a15.14,15.14,0,0,1,4.193.612c.175.087.437.087.611.175.437.175.786.262,1.136.437l.524.262a3.069,3.069,0,0,1,.7.437.872.872,0,0,1,.437.349,2.316,2.316,0,0,1,.524.437c.175.087.262.262.437.349l.524.524.349.349c.262.262.437.612.7.874.087.087.175.262.262.349.087.175.262.437.349.612s.175.262.175.437c.087.175.175.437.262.612s.087.262.175.437l.262.786c0,.087.087.175.087.262a4.422,4.422,0,0,1,.175,1.136v.349c0,.262.087.524.087.786v1.572c0,.349-.087.786-.087,1.136-.524,3.844-3.232,11.881-8.212,17.122-2.708,2.883-9.172,8.736-12.23,11.357h23.5C676.723,71.452,685.372,58.959,684.061,47.079ZM662.4,35.46c-.874-.262-1.66-.437-2.533-.612-1.834-.349,0-2.621,2.1-2.533a19.424,19.424,0,0,1,3.32.612A28.369,28.369,0,0,1,662.4,35.46Zm3.232,1.485c.7-.524,2.1-1.747,3.32-2.621a9.53,9.53,0,0,1,.961.524,20.608,20.608,0,0,1,4.892,4.717c-.7.262-2.446.961-4.717,1.922a12.134,12.134,0,0,0-4.018-4.368A1.475,1.475,0,0,0,665.629,36.945Zm10.308,20.791c-1.747,5.853-6.814,12.58-6.814,12.58-2.8,3.844-7.425,1.31-4.892-2.184s4.543-6.377,5.94-10.221c.087-.349.262-.7.349-1.048,2.184.087,3.844.175,5.678.175C676.024,57.212,676.024,57.474,675.937,57.736Zm1.223-5.329c-1.485,0-3.494.087-5.5.087a15.558,15.558,0,0,0,0-7.513c0-.087-.087-.262-.087-.349,1.573-.524,3.669-1.31,5.067-1.835.087.175.175.437.262.612A21.641,21.641,0,0,1,677.16,52.408Z" transform="translate(-645.1 -29.656)"/>
    </clipPath>
    <linearGradient id="linear-gradient-2" x1="0.002" y1="0.998" x2="0.8" y2="0.2" xlink:href="#linear-gradient"/>
  </defs>
  <g id="Group_112" data-name="Group 112" transform="translate(-135 -19)">
    <g id="Group_93" data-name="Group 93" transform="translate(135 19)">
      <g id="Group_16" data-name="Group 16" transform="translate(0 21.075)">
        <g id="Group_15" data-name="Group 15" clip-path="url(#clip-path)">
          <rect id="Rectangle_3" data-name="Rectangle 3" width="73.38" height="73.381" transform="translate(-0.262 -45.426)" fill="url(#linear-gradient)"/>
        </g>
      </g>
      <g id="Group_18" data-name="Group 18" transform="translate(30.924 1.556)">
        <g id="Group_17" data-name="Group 17" transform="translate(0 0)" clip-path="url(#clip-path-2)">
          <rect id="Rectangle_4" data-name="Rectangle 4" width="73.38" height="73.381" transform="translate(-14.239 -23.024)" fill="url(#linear-gradient-2)"/>
        </g>
      </g>
      <g id="Group_19" data-name="Group 19" transform="translate(10.832 11.64)">
        <path id="Path_62" data-name="Path 62" d="M658.934,70.116c.087-.175.262-.262.349-.437V44.694L657.1,41.2V71.95A18.063,18.063,0,0,0,658.934,70.116Z" transform="translate(-626.525 -41.2)"/>
        <path id="Path_63" data-name="Path 63" d="M661.4,46.6V68.614a28.122,28.122,0,0,0,2.184-3.407V50.356Z" transform="translate(-627.068 -41.883)"/>
        <path id="Path_64" data-name="Path 64" d="M648.395,76.056H627.953V41.2l-2.184,3.494V76.056h-1.485V45.917L622.1,49.586v29h23.5C646.56,77.8,647.434,76.93,648.395,76.056Z" transform="translate(-622.1 -41.2)"/>
      </g>
      <g id="Group_20" data-name="Group 20" transform="translate(18.52 0)">
        <path id="Path_65" data-name="Path 65" d="M652.04,34.973V32.265a14.921,14.921,0,0,0-21.14,0v2.708A14.921,14.921,0,0,1,652.04,34.973Z" transform="translate(-630.9 -27.875)"/>
        <path id="Path_66" data-name="Path 66" d="M652.04,39.042V36.422c-5.329-5.329-15.812-5.329-21.14,0v2.621C636.229,33.714,646.624,33.714,652.04,39.042Z" transform="translate(-630.9 -28.45)"/>
        <path id="Path_67" data-name="Path 67" d="M652.04,43.09V40.469c-4.892-4.892-16.249-4.892-21.14,0V43.09C635.7,38.2,647.148,38.2,652.04,43.09Z" transform="translate(-630.9 -29.003)"/>
        <path id="Path_68" data-name="Path 68" d="M652.04,47.147V44.526c-4.368-4.368-16.773-4.368-21.14,0v2.621C635.268,42.779,647.585,42.779,652.04,47.147Z" transform="translate(-630.9 -29.566)"/>
        <path id="Path_69" data-name="Path 69" d="M652.04,51.194V48.573c-3.931-3.931-17.3-3.931-21.14,0v2.621C634.744,47.35,648.109,47.35,652.04,51.194Z" transform="translate(-630.9 -30.119)"/>
        <path id="Path_70" data-name="Path 70" d="M652.04,55.251V52.63c-3.407-3.407-17.734-3.407-21.14,0v2.621C634.219,51.844,648.634,51.844,652.04,55.251Z" transform="translate(-630.9 -30.681)"/>
        <path id="Path_71" data-name="Path 71" d="M652.04,59.308V56.687c-2.883-2.883-18.258-2.883-21.14,0v2.621C633.783,56.425,649.07,56.425,652.04,59.308Z" transform="translate(-630.9 -31.244)"/>
        <path id="Path_72" data-name="Path 72" d="M652.04,63.355V60.735c-2.446-2.446-18.695-2.446-21.14,0v2.621C633.259,60.909,649.594,60.909,652.04,63.355Z" transform="translate(-630.9 -31.797)"/>
        <path id="Path_73" data-name="Path 73" d="M652.04,67.425V64.891c-1.922-1.922-19.219-1.922-21.14,0v2.533C632.822,65.5,650.031,65.5,652.04,67.425Z" transform="translate(-630.9 -32.372)"/>
        <path id="Path_74" data-name="Path 74" d="M652.04,71.472V68.939c-1.485-1.485-19.655-1.485-21.14,0v2.533C632.3,69.987,650.555,69.987,652.04,71.472Z" transform="translate(-630.9 -32.925)"/>
        <path id="Path_75" data-name="Path 75" d="M652.04,75.529V73c-.961-.961-20.18-.961-21.14,0v2.533C631.861,74.568,650.992,74.568,652.04,75.529Z" transform="translate(-630.9 -33.488)"/>
        <path id="Path_76" data-name="Path 76" d="M652.04,78.179V77.043c-.524-.524-20.7-.524-21.14,0v2.533c.437-.437,15.462-.437,19.917-.175A16.129,16.129,0,0,1,652.04,78.179Z" transform="translate(-630.9 -34.041)"/>
      </g>
    </g>
    <g id="Group_14" data-name="Group 14" transform="translate(218.423 32.618)">
      <g id="Group_12" data-name="Group 12" transform="translate(0.381 23.243)">
        <path id="Path_39" data-name="Path 39" d="M591.813,121.656l-2.159-3.556h1.016l1.9,3.175h1.27V118.1h1.016v3.175h1.27l1.905-3.175h1.016l-2.159,3.556,2.413,3.81h-1.016l-2.032-3.3h-1.4v3.3h-1.016v-3.3h-1.4l-2.032,3.3H589.4Z" transform="translate(-589.4 -117.973)" fill="#46433e"/>
        <path id="Path_40" data-name="Path 40" d="M601.489,124.069l4.318-5.969h.762v7.367h-.889v-5.842l-4.191,5.842H600.6V118.1h.889Z" transform="translate(-586.375 -117.973)" fill="#46433e"/>
        <path id="Path_41" data-name="Path 41" d="M611.367,120.159c-.127,1.016-.127,1.778-.254,2.413a5.065,5.065,0,0,1-.508,1.651,3.058,3.058,0,0,1-.762,1.016,1.527,1.527,0,0,1-1.016.254l-.127-.889a.467.467,0,0,0,.381-.127c.127,0,.254-.127.381-.254a.66.66,0,0,0,.254-.508c.127-.254.127-.508.254-.762.127-.381.127-.762.254-1.27a6.713,6.713,0,0,0,.127-1.651l.127-2.032h3.937v7.366h-.889v-6.6h-2.159Z" transform="translate(-584.187 -118)" fill="#46433e"/>
        <path id="Path_42" data-name="Path 42" d="M617.3,118.1h.889v2.667h1.524a2.8,2.8,0,0,1,1.016.127l.762.381a1.62,1.62,0,0,1,.508.762,2.159,2.159,0,0,1,0,2.032,2.656,2.656,0,0,1-.508.762,1.1,1.1,0,0,1-.762.381,2.162,2.162,0,0,1-.889.127H617.3Zm1.016,6.6h1.524a1.529,1.529,0,1,0,0-3.048h-1.524Zm4.826.762V118.1h.889v7.367Z" transform="translate(-581.865 -117.973)" fill="#46433e"/>
        <path id="Path_43" data-name="Path 43" d="M631.753,124.577v.889H626.8V118.1h4.953v.889h-3.937V121.4h3.429v.762h-3.429v2.54h3.937Z" transform="translate(-579.299 -117.973)" fill="#46433e"/>
        <path id="Path_44" data-name="Path 44" d="M639.889,121.275h.889l2.413-3.175h1.016l-2.667,3.556,2.921,3.81h-1.016l-2.54-3.3h-1.016v3.3H639V118.1h.889Z" transform="translate(-576.004 -117.973)" fill="#46433e"/>
        <path id="Path_45" data-name="Path 45" d="M649.456,125.467a4.567,4.567,0,0,1-1.4-.254,6.984,6.984,0,0,1-1.143-.889l-.762-1.143a5.4,5.4,0,0,1-.254-1.4,4.56,4.56,0,0,1,.254-1.4,1.849,1.849,0,0,1,.762-1.143,2.766,2.766,0,0,1,1.143-.889,2.513,2.513,0,0,1,1.4-.254,2.56,2.56,0,0,1,1.4.381,6.974,6.974,0,0,1,1.143.889l.762,1.143a5.4,5.4,0,0,1,.254,1.4,4.565,4.565,0,0,1-.254,1.4,3.5,3.5,0,0,1-1.905,1.905A4.566,4.566,0,0,1,649.456,125.467Zm-2.413-3.683a3.518,3.518,0,0,0,.127,1.143,2.048,2.048,0,0,0,.508.889,3.369,3.369,0,0,0,.762.635,2.159,2.159,0,0,0,2.032,0,1.866,1.866,0,0,0,.762-.635,3.182,3.182,0,0,0,.508-.889,2.8,2.8,0,0,0,.127-1.016,3.515,3.515,0,0,0-.127-1.143,2.045,2.045,0,0,0-.508-.889,3.368,3.368,0,0,0-.762-.635,2.159,2.159,0,0,0-2.032,0,1.867,1.867,0,0,0-.762.635,3.184,3.184,0,0,0-.508.889A2.477,2.477,0,0,0,647.043,121.783Z" transform="translate(-574.141 -117.973)" fill="#46433e"/>
        <path id="Path_46" data-name="Path 46" d="M661.424,125.467v-5.715l-2.413,4.318H658.5l-2.413-4.318v5.715H655.2V118.1h1.016l2.667,4.826,2.667-4.826h1.016v7.367Z" transform="translate(-571.629 -117.973)" fill="#46433e"/>
        <path id="Path_47" data-name="Path 47" d="M664.9,118.1h5.842v7.367h-.889v-6.6h-4.064v6.6H664.9V118.1Z" transform="translate(-569.009 -117.973)" fill="#46433e"/>
        <path id="Path_48" data-name="Path 48" d="M675.667,120.159c-.127,1.016-.127,1.778-.254,2.413a5.068,5.068,0,0,1-.508,1.651,3.058,3.058,0,0,1-.762,1.016,1.368,1.368,0,0,1-1.016.254L673,124.6a.467.467,0,0,0,.381-.127c.127,0,.254-.127.381-.254a.66.66,0,0,0,.254-.508c.127-.254.127-.508.254-.762.127-.381.127-.762.254-1.27a6.713,6.713,0,0,0,.127-1.651l.127-2.032h3.937v7.366h-.889v-6.6h-2.159Z" transform="translate(-566.821 -118)" fill="#46433e"/>
        <path id="Path_49" data-name="Path 49" d="M686.553,124.577v.889H681.6V118.1h4.953v.889h-3.937V121.4h3.429v.762h-3.429v2.54h3.937Z" transform="translate(-564.498 -117.973)" fill="#46433e"/>
        <path id="Path_50" data-name="Path 50" d="M690.089,121.275h.889l2.413-3.175h1.016l-2.667,3.556,2.921,3.81h-1.016l-2.54-3.3h-1.016v3.3H689.2V118.1h.889v3.175Z" transform="translate(-562.446 -117.973)" fill="#46433e"/>
        <path id="Path_51" data-name="Path 51" d="M696.2,121.683a4.512,4.512,0,0,1,.254-1.27,3.329,3.329,0,0,1,.635-1.143,2.767,2.767,0,0,1,1.143-.889,2.709,2.709,0,0,1,1.524-.381,2.342,2.342,0,0,1,1.651.508,2.241,2.241,0,0,1,1.016,1.143l-.762.508c-.127-.254-.254-.381-.381-.635-.127-.127-.381-.254-.508-.381s-.381-.127-.508-.254h-.508a3.709,3.709,0,0,0-1.143.254,1.3,1.3,0,0,0-.762.635,3.186,3.186,0,0,0-.508.889,2.8,2.8,0,0,0-.127,1.016,1.887,1.887,0,0,0,.254,1.143,2.048,2.048,0,0,0,.508.889,3.369,3.369,0,0,0,.762.635,2.393,2.393,0,0,0,1.016.254,1.145,1.145,0,0,0,.635-.127c.254,0,.381-.127.635-.254a1.753,1.753,0,0,0,.508-.381,2.776,2.776,0,0,0,.381-.635l.762.381a2.335,2.335,0,0,1-1.27,1.27,6.2,6.2,0,0,1-.889.381,2.162,2.162,0,0,1-.889.127,2.56,2.56,0,0,1-1.4-.381,6.988,6.988,0,0,1-1.143-.889,11.153,11.153,0,0,1-.762-1.27A9.854,9.854,0,0,1,696.2,121.683Z" transform="translate(-560.555 -118)" fill="#46433e"/>
        <path id="Path_52" data-name="Path 52" d="M704.827,118.1h.889v2.667h1.524a2.8,2.8,0,0,1,1.016.127l.762.381a1.62,1.62,0,0,1,.508.762,2.159,2.159,0,0,1,0,2.032,2.658,2.658,0,0,1-.508.762,1.1,1.1,0,0,1-.762.381,2.476,2.476,0,0,1-1.016.127H704.7V118.1Zm.889,6.6h1.524a1.529,1.529,0,1,0,0-3.048h-1.524Zm4.953.762V118.1h.889v7.367Z" transform="translate(-558.26 -117.973)" fill="#46433e"/>
      </g>
      <g id="Group_13" data-name="Group 13">
        <path id="Path_53" data-name="Path 53" d="M589.1,114.887V99.9h21.464v14.987h-3.937V103.71h-13.59v11.177Z" transform="translate(-589.1 -99.646)"/>
        <path id="Path_54" data-name="Path 54" d="M623.711,99.954a4.058,4.058,0,0,1,1.778.381,10.6,10.6,0,0,1,1.524,1.016,4.567,4.567,0,0,1,1.016,1.524,4.481,4.481,0,0,1,.381,1.778v5.461a4.056,4.056,0,0,1-.381,1.778,5.638,5.638,0,0,1-1.016,1.4,4.567,4.567,0,0,1-1.524,1.016,4.058,4.058,0,0,1-1.778.381H612.026a5.1,5.1,0,0,1-1.905-.381,4.021,4.021,0,0,1-1.524-1.016,4.568,4.568,0,0,1-1.016-1.524,4.64,4.64,0,0,1-.381-1.905v-5.715a2.915,2.915,0,0,1,.508-1.778,4.393,4.393,0,0,1,1.27-1.4,6.841,6.841,0,0,1,1.651-.889,5.1,5.1,0,0,1,1.905-.381h11.177Zm-12.574,11.177,0,0h13.209v-7.24H611.137Z" transform="translate(-584.211 -99.7)"/>
        <path id="Path_55" data-name="Path 55" d="M624.5,110.8h1.016v-6.35a4.057,4.057,0,0,1,.381-1.778,5.636,5.636,0,0,1,1.016-1.4,4.757,4.757,0,0,1,1.524-.889,5.1,5.1,0,0,1,1.905-.381h10.923a5.1,5.1,0,0,1,1.905.381,4.392,4.392,0,0,1,1.524.889,3.971,3.971,0,0,1,1.143,1.4,4.057,4.057,0,0,1,.381,1.778v6.35h1.524v3.937H624.5Zm18.035-6.985,0,0H629.072V110.8h13.463Z" transform="translate(-579.539 -99.619)"/>
        <path id="Path_56" data-name="Path 56" d="M665.284,99.9l-12.828,7.494,12.955,7.494h-7.875l-6.731-3.81a7.9,7.9,0,0,1-1.524-1.016,5.246,5.246,0,0,1-.889-1.4v6.35H644.2V99.9h4.191v6.477a3.98,3.98,0,0,1,1.016-1.4,9.261,9.261,0,0,1,1.651-1.143l6.477-3.81h7.748Z" transform="translate(-574.219 -99.646)"/>
        <path id="Path_57" data-name="Path 57" d="M676.584,99.954a4.058,4.058,0,0,1,1.778.381,10.6,10.6,0,0,1,1.524,1.016,4.57,4.57,0,0,1,1.016,1.524,4.482,4.482,0,0,1,.381,1.778v5.461a4.057,4.057,0,0,1-.381,1.778,5.643,5.643,0,0,1-1.016,1.4,10.6,10.6,0,0,1-1.524,1.016,4.484,4.484,0,0,1-1.778.381H665.026a5.1,5.1,0,0,1-1.9-.381,3.239,3.239,0,0,1-1.524-1.016,4.566,4.566,0,0,1-1.016-1.524,4.641,4.641,0,0,1-.381-1.905v-5.715a2.917,2.917,0,0,1,.508-1.778,6.1,6.1,0,0,1,1.143-1.4,6.84,6.84,0,0,1,1.651-.889,5.1,5.1,0,0,1,1.905-.381h11.177Zm-12.447,11.177,0,0h13.209v-7.24H664.137Z" transform="translate(-569.897 -99.7)"/>
        <path id="Path_58" data-name="Path 58" d="M695.889,100.154a3.465,3.465,0,0,1,1.651.889,3.97,3.97,0,0,1,1.143,1.4,5.263,5.263,0,0,1,.381,2.032,4.572,4.572,0,0,1-.889,2.794c.254.381.508.889.762,1.27a2.9,2.9,0,0,1,.381,1.4,5.1,5.1,0,0,1-.381,1.905,3.469,3.469,0,0,1-1.143,1.524,4.48,4.48,0,0,1-1.651,1.016,5.1,5.1,0,0,1-1.905.381H677.6V99.9h15.876a12.8,12.8,0,0,1,2.413.254Zm-.762,3.556,0,0H681.791v1.651h13.336Zm0,5.588,0,0H681.791v1.778h13.336Z" transform="translate(-565.197 -99.646)"/>
        <path id="Path_59" data-name="Path 59" d="M694.5,114.86l5.842-11.177a8.065,8.065,0,0,1,.889-1.524,4.467,4.467,0,0,1,.889-1.143,2.284,2.284,0,0,1,1.143-.762,3.969,3.969,0,0,1,2.794,0,1.976,1.976,0,0,1,1.016.762,8.971,8.971,0,0,1,.889,1.143c.254.508.508,1.016.889,1.651l5.842,11.177H710.63l-2.286-3.937H700.85l-2.032,3.937H694.5Zm11.812-7.748-1.778-3.175-1.778,3.175Z" transform="translate(-560.633 -99.619)"/>
      </g>
    </g>
  </g>
</svg>
