<svg id="icons" enable-background="new 0 0 64 64" height="512" viewBox="0 0 64 64" width="512" xmlns="http://www.w3.org/2000/svg"><g><g><g><path d="m60.998 26.507c-.257 0-.513-.098-.708-.294-.391-.392-.389-1.024.002-1.414l1.706-1.699.002-7.367-.679-1.354-13.53-2.898c-.142-.03-.275-.091-.391-.178l-11.733-8.801-27.132-.001-5.535 8.304v8.702c0 .552-.446.999-.997 1l.013 4.996c.001.553-.445 1.002-.997 1.003-.001 0-.002 0-.003 0-.551 0-.999-.446-1-.997l-.016-5.999c-.001-.266.104-.521.292-.709.187-.189.442-.294.708-.294v-8.005c0-.197.059-.391.168-.555l6-9.001c.186-.278.498-.445.832-.445l28 .001c.217 0 .427.07.6.2l11.824 8.869 13.785 2.953c.297.063.549.258.685.529l1 1.995c.07.14.106.293.106.448l-.002 8.018c0 .266-.105.521-.294.708l-2 1.992c-.195.196-.451.293-.706.293z"/></g><g><path d="m48 11.503h-35.998c-.553 0-1-.447-1-1s.447-1 1-1h35.998c.553 0 1 .447 1 1s-.447 1-1 1z"/></g><g><path d="m26.002 11.503c-.553 0-1-.447-1-1v-9.006c0-.553.447-1 1-1s1 .447 1 1v9.006c0 .553-.447 1-1 1z"/></g><g><path d="m2.998 20.507h-.998c-.553 0-1-.447-1-1s.447-1 1-1h.998c.553 0 1 .447 1 1s-.447 1-1 1z"/></g><g><path d="m5 11.502h-3c-.553 0-1-.447-1-1s.447-1 1-1h3c.553 0 1 .447 1 1s-.447 1-1 1z"/></g><g><path d="m5 15.504c-.553 0-1-.447-1-1v-4.002c0-.553.447-1 1-1s1 .447 1 1v4.002c0 .553-.447 1-1 1z"/></g><g><path d="m5 15.504h-3c-.553 0-1-.447-1-1s.447-1 1-1h3c.553 0 1 .447 1 1s-.447 1-1 1z"/></g><g><path d="m12.002 11.503c-.553 0-1-.447-1-1v-6.002c0-.553.447-1 1-1s1 .447 1 1v6.002c0 .553-.447 1-1 1z"/></g><g><path d="m12.002 5.501c-.553 0-1-.447-1-1 0-2.206 1.794-4 4-4 .553 0 1 .447 1 1s-.447 1-1 1c-1.103 0-2 .897-2 2 0 .553-.447 1-1 1z"/></g><g><path d="m28 14.504h-1c-.553 0-1-.447-1-1s.447-1 1-1h1c.553 0 1 .447 1 1s-.447 1-1 1z"/></g><g><path d="m13.986 14.504h-1c-.553 0-1-.447-1-1s.447-1 1-1h1c.553 0 1 .447 1 1s-.447 1-1 1z"/></g><g><path d="m12 32.507c-3.861 0-7.002-3.141-7.002-7.001s3.141-7.001 7.002-7.001c3.859 0 7 3.141 7 7.001s-3.141 7.001-7 7.001zm0-12.002c-2.758 0-5.002 2.243-5.002 5.001s2.244 5.001 5.002 5.001c2.757 0 5-2.243 5-5.001s-2.243-5.001-5-5.001z"/></g><g><path d="m12 28.507c-1.654 0-3-1.346-3-3s1.346-3 3-3 3 1.346 3 3-1.346 3-3 3zm0-4c-.552 0-1 .448-1 1s.448 1 1 1 1-.448 1-1-.448-1-1-1z"/></g><g><path d="m51.998 32.507c-3.859 0-7-3.141-7-7.001s3.141-7.001 7-7.001c3.861 0 7.002 3.141 7.002 7.001s-3.141 7.001-7.002 7.001zm0-12.002c-2.757 0-5 2.243-5 5.001s2.243 5.001 5 5.001c2.758 0 5.002-2.243 5.002-5.001s-2.244-5.001-5.002-5.001z"/></g><g><path d="m51.998 28.506c-1.654 0-3-1.346-3-3s1.346-3 3-3 3 1.346 3 3-1.346 3-3 3zm0-4c-.552 0-1 .448-1 1s.448 1 1 1 1-.448 1-1-.448-1-1-1z"/></g><g><path d="m5.998 26.506h-4.982c-.553 0-1-.447-1-1s.447-1 1-1h4.982c.553 0 1 .447 1 1s-.447 1-1 1z"/></g><g><path d="m45.998 26.506h-27.998c-.553 0-1-.447-1-1s.447-1 1-1h27.998c.553 0 1 .447 1 1s-.447 1-1 1z"/></g><g><path d="m60.998 26.507h-2.998c-.553 0-1-.447-1-1s.447-1 1-1h2.998c.553 0 1 .447 1 1s-.447 1-1 1z"/></g><g><path d="m63 16.497h-5.002c-.553 0-1-.447-1-1s.447-1 1-1h5.002c.553 0 1 .447 1 1s-.447 1-1 1z"/></g><g><path d="m57.998 16.497c-.553 0-1-.447-1-1v-2.852c0-.553.447-1 1-1s1 .447 1 1v2.852c0 .553-.447 1-1 1z"/></g></g><g><path d="m63 35.502h-62c-.553 0-1-.447-1-1v-3c0-.553.447-1 1-1h62c.553 0 1 .447 1 1v3c0 .553-.447 1-1 1zm-61-2h60v-1h-60z"/></g><g><path d="m63 63.503h-62c-.553 0-1-.447-1-1v-3c0-.553.447-1 1-1h62c.553 0 1 .447 1 1v3c0 .553-.447 1-1 1zm-61-2h60v-1h-60z"/></g><g><g><path d="m1.001 60.503c-.378 0-.739-.215-.908-.58-.232-.501-.014-1.096.487-1.327l53.992-25.001c.502-.233 1.096-.014 1.327.487.232.501.014 1.096-.487 1.327l-53.992 25.001c-.136.064-.278.093-.419.093z"/></g><g><path d="m9.008 60.503c-.378 0-.739-.215-.908-.58-.232-.501-.014-1.096.487-1.327l53.992-25.001c.502-.233 1.095-.014 1.327.487s.014 1.096-.487 1.327l-53.992 25.001c-.136.064-.279.093-.419.093z"/></g></g><g><g><path d="m62.999 60.503c-.141 0-.283-.029-.419-.093l-26.996-12.5c-.501-.231-.72-.826-.487-1.327.232-.502.826-.721 1.327-.487l26.996 12.5c.501.231.72.826.487 1.327-.169.365-.53.58-.908.58z"/></g><g><path d="m32.005 46.151c-.141 0-.283-.029-.419-.093l-22.998-10.649c-.501-.231-.72-.826-.487-1.327.231-.501.826-.722 1.327-.487l22.998 10.649c.501.231.72.826.487 1.327-.169.366-.53.58-.908.58z"/></g><g><path d="m54.992 60.503c-.141 0-.283-.029-.419-.093l-22.995-10.648c-.501-.231-.72-.826-.487-1.327s.827-.722 1.327-.487l22.995 10.648c.501.231.72.826.487 1.327-.169.365-.53.58-.908.58z"/></g><g><path d="m27.993 48c-.141 0-.283-.029-.419-.093l-26.993-12.498c-.501-.231-.72-.826-.487-1.327.231-.501.826-.722 1.327-.487l26.993 12.498c.501.231.72.826.487 1.327-.169.365-.53.58-.908.58z"/></g></g></g></svg>