<svg width="476" height="269" viewBox="0 0 476 269" fill="none" xmlns="http://www.w3.org/2000/svg">
<path d="M275 269H227.013L195 0H242.987L275 269Z" fill="white"/>
<path d="M294 269H285.434L251 0H259.566L294 269Z" fill="white"/>
<path d="M188.892 110.213C188.892 107.723 188.013 105.818 186.255 104.5C184.497 103.152 181.333 101.746 176.763 100.281C172.192 98.7871 168.574 97.3223 165.908 95.8867C158.643 91.9609 155.01 86.6729 155.01 80.0225C155.01 76.5654 155.977 73.4893 157.91 70.7939C159.873 68.0693 162.671 65.9453 166.304 64.4219C169.966 62.8984 174.067 62.1367 178.608 62.1367C183.179 62.1367 187.251 62.9717 190.825 64.6416C194.399 66.2822 197.168 68.6113 199.131 71.6289C201.123 74.6465 202.119 78.0742 202.119 81.9121H188.936C188.936 78.9824 188.013 76.7119 186.167 75.1006C184.321 73.46 181.729 72.6396 178.389 72.6396C175.166 72.6396 172.661 73.3281 170.874 74.7051C169.087 76.0527 168.193 77.8398 168.193 80.0664C168.193 82.1465 169.233 83.8896 171.313 85.2959C173.423 86.7021 176.514 88.0205 180.586 89.251C188.086 91.5068 193.55 94.3047 196.978 97.6445C200.405 100.984 202.119 105.145 202.119 110.125C202.119 115.662 200.024 120.013 195.835 123.177C191.646 126.312 186.006 127.879 178.916 127.879C173.994 127.879 169.512 126.985 165.469 125.198C161.426 123.382 158.335 120.906 156.196 117.771C154.087 114.637 153.032 111.004 153.032 106.873H166.26C166.26 113.934 170.479 117.464 178.916 117.464C182.051 117.464 184.497 116.834 186.255 115.574C188.013 114.285 188.892 112.498 188.892 110.213ZM228.311 63.0156L244.746 109.422L261.094 63.0156H278.408V127H265.181V109.51L266.499 79.3193L249.229 127H240.176L222.949 79.3633L224.268 109.51V127H211.084V63.0156H228.311ZM326.836 113.816H303.721L299.326 127H285.308L309.126 63.0156H321.343L345.293 127H331.274L326.836 113.816ZM307.28 103.138H323.276L315.234 79.1875L307.28 103.138ZM374.956 103.577H364.453V127H351.27V63.0156H375.044C382.603 63.0156 388.433 64.7002 392.534 68.0693C396.636 71.4385 398.687 76.1992 398.687 82.3516C398.687 86.7168 397.734 90.3643 395.83 93.2939C393.955 96.1943 391.099 98.5088 387.261 100.237L401.104 126.385V127H386.953L374.956 103.577ZM364.453 92.8984H375.088C378.398 92.8984 380.962 92.0635 382.778 90.3936C384.595 88.6943 385.503 86.3652 385.503 83.4062C385.503 80.3887 384.639 78.0156 382.91 76.2871C381.211 74.5586 378.589 73.6943 375.044 73.6943H364.453V92.8984ZM454.717 73.6943H435.117V127H421.934V73.6943H402.598V63.0156H454.717V73.6943Z" fill="black"/>
<path d="M172.428 177.512C172.428 172.138 173.613 167.885 175.982 164.753C178.373 161.601 181.611 160.024 185.694 160.024C190.37 160.024 193.925 161.886 196.358 165.61L196.549 160.659H200.104V194.302C200.104 198.724 198.866 202.226 196.39 204.807C193.915 207.389 190.561 208.679 186.329 208.679C183.938 208.679 181.653 208.14 179.474 207.061C177.315 206.003 175.612 204.585 174.364 202.808L176.49 200.522C179.177 203.823 182.372 205.474 186.075 205.474C189.249 205.474 191.725 204.532 193.502 202.649C195.279 200.787 196.2 198.195 196.263 194.873V190.557C193.83 193.942 190.286 195.635 185.631 195.635C181.653 195.635 178.458 194.048 176.046 190.874C173.634 187.7 172.428 183.416 172.428 178.02V177.512ZM176.268 178.179C176.268 182.559 177.146 186.018 178.902 188.557C180.659 191.075 183.134 192.334 186.329 192.334C191.005 192.334 194.317 190.239 196.263 186.05V170.085C195.375 167.885 194.094 166.213 192.423 165.071C190.751 163.907 188.741 163.325 186.393 163.325C183.198 163.325 180.711 164.584 178.934 167.102C177.157 169.599 176.268 173.291 176.268 178.179ZM243.509 195H239.7V146.25H243.509V195ZM304.783 195C304.402 193.921 304.159 192.323 304.053 190.208C302.72 191.943 301.016 193.286 298.943 194.238C296.89 195.169 294.711 195.635 292.405 195.635C289.104 195.635 286.427 194.714 284.375 192.874C282.344 191.033 281.328 188.705 281.328 185.891C281.328 182.548 282.714 179.903 285.486 177.957C288.279 176.01 292.161 175.037 297.134 175.037H304.021V171.133C304.021 168.678 303.259 166.753 301.736 165.356C300.234 163.939 298.033 163.23 295.134 163.23C292.489 163.23 290.299 163.907 288.564 165.261C286.829 166.615 285.962 168.245 285.962 170.149L282.153 170.117C282.153 167.388 283.423 165.028 285.962 163.04C288.501 161.029 291.622 160.024 295.325 160.024C299.154 160.024 302.17 160.987 304.37 162.913C306.592 164.817 307.734 167.483 307.798 170.911V187.161C307.798 190.483 308.147 192.969 308.845 194.619V195H304.783ZM292.849 192.271C295.388 192.271 297.652 191.657 299.641 190.43C301.651 189.202 303.111 187.563 304.021 185.51V177.957H297.229C293.442 177.999 290.479 178.697 288.342 180.051C286.205 181.384 285.137 183.225 285.137 185.574C285.137 187.499 285.846 189.097 287.263 190.366C288.702 191.636 290.564 192.271 292.849 192.271ZM367.771 186.272C367.771 184.389 367.009 182.876 365.485 181.733C363.983 180.591 361.708 179.702 358.662 179.067C355.615 178.411 353.245 177.671 351.552 176.846C349.881 175.999 348.632 174.973 347.807 173.767C347.003 172.561 346.601 171.101 346.601 169.387C346.601 166.679 347.733 164.447 349.997 162.69C352.261 160.913 355.16 160.024 358.693 160.024C362.523 160.024 365.591 160.977 367.897 162.881C370.225 164.764 371.389 167.229 371.389 170.276H367.58C367.58 168.266 366.734 166.594 365.041 165.261C363.369 163.928 361.254 163.262 358.693 163.262C356.197 163.262 354.187 163.822 352.663 164.944C351.161 166.044 350.41 167.483 350.41 169.26C350.41 170.974 351.034 172.307 352.282 173.259C353.552 174.19 355.847 175.047 359.169 175.83C362.513 176.613 365.009 177.449 366.66 178.337C368.331 179.226 369.569 180.295 370.373 181.543C371.177 182.791 371.579 184.304 371.579 186.082C371.579 188.98 370.405 191.297 368.056 193.032C365.729 194.767 362.682 195.635 358.916 195.635C354.917 195.635 351.669 194.672 349.172 192.747C346.696 190.8 345.458 188.346 345.458 185.383H349.267C349.415 187.605 350.346 189.34 352.06 190.588C353.795 191.816 356.08 192.429 358.916 192.429C361.56 192.429 363.697 191.847 365.327 190.684C366.956 189.52 367.771 188.049 367.771 186.272ZM429.965 186.272C429.965 184.389 429.203 182.876 427.68 181.733C426.177 180.591 423.903 179.702 420.856 179.067C417.809 178.411 415.439 177.671 413.747 176.846C412.075 175.999 410.827 174.973 410.001 173.767C409.197 172.561 408.795 171.101 408.795 169.387C408.795 166.679 409.927 164.447 412.191 162.69C414.455 160.913 417.354 160.024 420.888 160.024C424.717 160.024 427.785 160.977 430.092 162.881C432.419 164.764 433.583 167.229 433.583 170.276H429.774C429.774 168.266 428.928 166.594 427.235 165.261C425.564 163.928 423.448 163.262 420.888 163.262C418.391 163.262 416.381 163.822 414.857 164.944C413.355 166.044 412.604 167.483 412.604 169.26C412.604 170.974 413.228 172.307 414.477 173.259C415.746 174.19 418.042 175.047 421.364 175.83C424.707 176.613 427.204 177.449 428.854 178.337C430.526 179.226 431.763 180.295 432.567 181.543C433.371 182.791 433.773 184.304 433.773 186.082C433.773 188.98 432.599 191.297 430.25 193.032C427.923 194.767 424.876 195.635 421.11 195.635C417.111 195.635 413.863 194.672 411.366 192.747C408.891 190.8 407.653 188.346 407.653 185.383H411.461C411.61 187.605 412.541 189.34 414.254 190.588C415.989 191.816 418.275 192.429 421.11 192.429C423.755 192.429 425.892 191.847 427.521 190.684C429.15 189.52 429.965 188.049 429.965 186.272Z" fill="black"/>
<rect x="125" y="56" width="2" height="155" fill="black"/>
<path d="M98.1045 91.9591C61.0965 71.139 37.1879 92.0328 36.9493 92.2472C36.0466 93.0828 35.9818 94.488 36.8042 95.4039C37.6255 96.3186 39.0296 96.4055 39.9576 95.5974C40.8339 94.8189 61.8156 76.7146 95.8978 95.881C96.2343 96.0723 96.6136 96.1724 96.9995 96.1724C98.0221 96.1713 98.9171 95.4819 99.1765 94.4913C99.436 93.5017 98.9962 92.4616 98.1045 91.9591Z" fill="black"/>
<path d="M105.986 82.952C60.1015 57.1369 29.4057 82.952 29.1011 83.2104C28.4678 83.7293 28.1654 84.5518 28.3128 85.3577C28.459 86.1636 29.0329 86.8255 29.8092 87.0872C30.5854 87.3489 31.4419 87.1686 32.0467 86.6155C32.3259 86.3747 60.6237 62.6025 103.779 86.8739C104.116 87.0652 104.495 87.1653 104.881 87.1653C105.903 87.1642 106.798 86.4748 107.058 85.4841C107.317 84.4946 106.877 83.4545 105.986 82.952Z" fill="black"/>
<path d="M72.2322 98.1735H63.2252C53.2802 98.1845 45.222 106.244 45.211 116.188V176.986C45.222 186.93 53.2802 194.989 63.2252 195H72.2322C82.1761 194.989 90.2354 186.93 90.2464 176.986V116.188C90.2354 106.244 82.1761 98.1845 72.2322 98.1735V98.1735ZM85.7429 176.986C85.7352 184.445 79.6912 190.488 72.2322 190.496H63.2252C55.7662 190.488 49.7222 184.445 49.7145 176.986V116.188C49.7222 108.73 55.7662 102.685 63.2252 102.677H72.2322C79.6912 102.685 85.7352 108.73 85.7429 116.188V176.986Z" fill="black"/>
<path d="M67.7287 129.698C72.7028 129.698 76.7358 125.667 76.7358 120.691C76.7358 115.717 72.7028 111.684 67.7287 111.684C62.7546 111.684 58.7216 115.717 58.7216 120.691C58.7216 125.667 62.7546 129.698 67.7287 129.698ZM67.7287 116.188C70.2158 116.188 72.2323 118.204 72.2323 120.691C72.2323 123.178 70.2158 125.195 67.7287 125.195C65.2416 125.195 63.2252 123.178 63.2252 120.691C63.2252 118.204 65.2416 116.188 67.7287 116.188Z" fill="black"/>
<path d="M78.9876 138.705H56.4698C55.2263 138.705 54.218 139.714 54.218 140.957C54.218 142.201 55.2263 143.209 56.4698 143.209H78.9876C80.2311 143.209 81.2393 142.201 81.2393 140.957C81.2393 139.714 80.2311 138.705 78.9876 138.705Z" fill="black"/>
<path d="M78.9876 147.713H56.4698C55.2263 147.713 54.218 148.721 54.218 149.964C54.218 151.208 55.2263 152.216 56.4698 152.216H78.9876C80.2311 152.216 81.2393 151.208 81.2393 149.964C81.2393 148.721 80.2311 147.713 78.9876 147.713Z" fill="black"/>
<path d="M69.9805 156.72H65.4769C64.2334 156.72 63.2252 157.728 63.2252 158.971C63.2252 160.215 64.2334 161.223 65.4769 161.223H69.9805C71.224 161.223 72.2323 160.215 72.2323 158.971C72.2323 157.728 71.224 156.72 69.9805 156.72Z" fill="black"/>
<path d="M57.731 157.102C57.6056 157.017 57.4693 156.949 57.3252 156.9C57.1977 156.835 57.0614 156.789 56.9195 156.765C56.1785 156.614 55.4099 156.842 54.8712 157.373C54.46 157.805 54.2258 158.375 54.2181 158.971C54.2115 159.571 54.4468 160.147 54.8712 160.57C55.09 160.769 55.3417 160.93 55.6144 161.043C56.1587 161.284 56.7799 161.284 57.3252 161.043C57.5979 160.93 57.8497 160.769 58.0685 160.57C58.4918 160.147 58.7271 159.571 58.7216 158.971C58.7128 158.375 58.4797 157.805 58.0685 157.373C57.9619 157.276 57.8486 157.186 57.731 157.102V157.102Z" fill="black"/>
<path d="M79.843 156.9C79.2976 156.662 78.6775 156.662 78.1322 156.9C77.8595 157.014 77.6077 157.174 77.3889 157.373C76.9777 157.805 76.7435 158.375 76.7358 158.971C76.7281 159.725 77.1008 160.432 77.7287 160.849C78.3554 161.267 79.1503 161.34 79.843 161.043C80.1157 160.93 80.3674 160.769 80.5862 160.57C81.0096 160.147 81.2448 159.571 81.2393 158.971C81.2306 158.375 80.9975 157.805 80.5862 157.373C80.3674 157.174 80.1157 157.014 79.843 156.9Z" fill="black"/>
</svg>
